<svg width="128" height="34" viewBox="0 0 128 34" fill="none" xmlns="http://www.w3.org/2000/svg">
<path fill-rule="evenodd" clip-rule="evenodd" d="M17 31.4815C24.9979 31.4815 31.4815 24.9979 31.4815 17C31.4815 9.0021 24.9979 2.51852 17 2.51852C9.0021 2.51852 2.51852 9.0021 2.51852 17C2.51852 24.9979 9.0021 31.4815 17 31.4815ZM17 34C7.61116 34 0 26.3888 0 17C0 7.61116 7.61116 0 17 0C26.3888 0 34 7.61116 34 17C34 26.3888 26.3888 34 17 34ZM12.1618 22.5745C13.5101 23.9022 15.1846 24.5556 17.1419 24.5556C18.7294 24.5556 20.056 24.1762 21.1216 23.3964C22.1872 22.6166 22.9048 21.4996 23.2963 20.0876L21.0346 19.5396C20.6432 20.5091 20.143 21.2256 19.5341 21.6682C18.9469 22.1319 18.1422 22.3426 17.1419 22.3426C15.7936 22.3426 14.6845 21.879 13.8363 20.9727C12.9664 20.0454 12.5315 18.7177 12.5315 16.9895C12.5315 15.2613 12.9664 13.9335 13.8363 13.0273C14.6845 12.1 15.7936 11.6574 17.1419 11.6574C18.1422 11.6574 18.9469 11.8681 19.5341 12.3318C20.143 12.7744 20.6432 13.4909 21.0346 14.4604L23.2963 13.9124C22.9048 12.5004 22.1654 11.3834 21.1216 10.6036C20.056 9.8238 18.7294 9.44444 17.1419 9.44444C15.1846 9.44444 13.5101 10.0978 12.14 11.4255C10.77 12.7533 10.0741 14.6079 10.0741 16.9895C10.0958 19.3921 10.7917 21.2467 12.1618 22.5745ZM46.1477 17.0526C46.1477 19.1935 46.7631 20.8608 47.9748 22.0545C49.1672 23.2481 50.648 23.8354 52.3789 23.8354C53.7829 23.8354 54.9561 23.4944 55.8984 22.7934C56.8408 22.0923 57.4755 21.0882 57.8216 19.8188L55.8215 19.3262C55.4753 20.1977 55.033 20.8419 54.4945 21.2398C53.9752 21.6566 53.2636 21.846 52.3789 21.846C51.1865 21.846 50.2057 21.4292 49.4556 20.6145C48.6863 19.7809 48.3017 18.5872 48.3017 17.0336C48.3017 15.48 48.6863 14.2864 49.4556 13.4717C50.2057 12.638 51.1865 12.2402 52.3789 12.2402C53.2636 12.2402 53.9752 12.4296 54.4945 12.8464C55.033 13.2443 55.4753 13.8885 55.8215 14.76L57.8216 14.2674C57.4755 12.998 56.8216 11.9938 55.8984 11.2928C54.9561 10.5918 53.7829 10.2508 52.3789 10.2508C50.648 10.2508 49.1672 10.8381 47.9555 12.0317C46.7439 13.2254 46.1285 14.8927 46.1285 17.0336L46.1477 17.0526ZM60.7642 22.4144C59.8987 21.4671 59.4756 20.2924 59.4756 18.9093C59.4756 17.5262 59.8987 16.3515 60.7642 15.4042C61.6296 14.4569 62.7836 13.9832 64.226 13.9832C65.6876 13.9832 66.8416 14.4569 67.707 15.4042C68.5532 16.3515 68.9956 17.5262 68.9956 18.9093C68.9956 20.2924 68.5532 21.4671 67.707 22.4144C66.8416 23.3428 65.6876 23.8165 64.226 23.8165C62.7836 23.8165 61.6296 23.3428 60.7642 22.4144ZM61.5912 18.9093C61.5912 18.0378 61.8219 17.2989 62.3028 16.6547C62.7643 16.0295 63.4182 15.7263 64.2452 15.7263C65.0914 15.7263 65.7453 16.0295 66.2069 16.6547C66.6685 17.2989 66.9185 18.0378 66.9185 18.9093C66.9185 19.7809 66.6685 20.5198 66.2069 21.164C65.7453 21.7892 65.0914 22.1113 64.2452 22.1113C63.4182 22.1113 62.7643 21.7892 62.3028 21.164C61.8219 20.5198 61.5912 19.7809 61.5912 18.9093ZM73.6113 23.6839H71.6111V14.1727H73.6113V15.8021C74.3806 14.6085 75.3614 14.0211 76.5346 14.0211C77.1693 14.0211 77.7462 14.1916 78.2463 14.5516C78.7463 14.9116 79.0732 15.3853 79.2079 15.9726C79.5348 15.3474 79.9772 14.8548 80.4964 14.5137C81.0157 14.1727 81.5927 14.0022 82.2273 14.0022C83.112 14.0022 83.7851 14.2485 84.2659 14.779C84.766 15.3095 84.9968 16.0105 84.9968 16.8631V23.7028H82.9966V17.2989C82.9966 16.7873 82.862 16.4084 82.612 16.1431C82.362 15.8589 82.0158 15.7453 81.5734 15.7453C80.9388 15.7453 80.4003 16.1052 79.9772 16.8631C79.5348 17.602 79.304 18.6062 79.304 19.8567V23.6839H77.3039V17.2989C77.3039 16.7873 77.1693 16.3894 76.9192 16.1242C76.6692 15.8589 76.323 15.7263 75.8807 15.7263C75.246 15.7263 74.7075 16.1052 74.2652 16.8821C73.8229 17.6399 73.6113 18.7009 73.6113 20.0651V23.6839ZM88.1701 27.5489H90.1702V22.6228C90.4202 22.9639 90.7664 23.2481 91.228 23.4754C91.6896 23.7028 92.2088 23.8354 92.7666 23.8354C94.1898 23.8354 95.2668 23.3807 96.0168 22.5092C96.7477 21.6376 97.1131 20.4251 97.1131 18.9093C97.1131 17.3557 96.7477 16.1431 96.0168 15.2716C95.286 14.4001 94.209 13.9643 92.805 13.9643C92.2088 13.9643 91.6703 14.0969 91.1895 14.3622C90.6895 14.6085 90.3626 14.9116 90.1702 15.2148V14.1159H88.1701V27.5489ZM90.7472 16.5789C90.2856 17.1473 90.0741 17.9241 90.0741 18.8904H90.0356C90.0356 19.8567 90.2664 20.6335 90.728 21.2208C91.1895 21.7892 91.7857 22.0734 92.5166 22.0734C93.2474 22.0734 93.8436 21.7892 94.3052 21.2208C94.7667 20.6335 94.9975 19.8567 94.9975 18.8904C94.9975 17.9241 94.786 17.1473 94.3244 16.5789C93.8628 15.9916 93.2666 15.7074 92.5358 15.7074C91.805 15.7074 91.2088 15.9916 90.7472 16.5789ZM98.9209 20.9366C98.9209 21.8839 99.2094 22.6039 99.7671 23.0965C100.325 23.5891 101.036 23.8354 101.902 23.8354C103.21 23.8544 104.21 23.3807 104.883 22.4523L105.094 23.7028H106.787V17.7725C106.787 15.2527 105.498 14.0022 102.902 14.0022C101.998 14.0022 101.21 14.2295 100.536 14.7032C99.8825 15.1769 99.4594 15.821 99.2478 16.6168L101.075 16.9957C101.402 16.1621 101.998 15.7453 102.883 15.7453C103.44 15.7453 103.883 15.8779 104.248 16.1431C104.594 16.4084 104.787 16.8252 104.787 17.3936V17.8104H103.114C101.844 17.8104 100.844 18.0946 100.075 18.6441C99.2863 19.1935 98.9017 19.9703 98.9017 20.9366H98.9209ZM101.556 19.8567C101.21 20.1219 101.017 20.4819 101.017 20.9366C101.017 21.2966 101.113 21.5618 101.325 21.7703C101.536 21.9976 101.825 22.1113 102.229 22.1113C102.902 22.1113 103.498 21.8839 104.017 21.4671C104.517 21.0313 104.767 20.444 104.767 19.6672V19.4588H103.017C102.402 19.4588 101.921 19.5914 101.556 19.8567ZM109.614 23.6839H111.614V19.8188C111.614 18.5683 111.864 17.5831 112.364 16.8442C112.845 16.1052 113.441 15.7263 114.095 15.7263C115.114 15.7263 115.595 16.3137 115.595 17.4694V23.6839H117.595V16.8442C117.595 15.9347 117.345 15.2337 116.826 14.7221C116.307 14.2295 115.614 13.9832 114.768 13.9832C114.134 13.9832 113.537 14.1348 112.98 14.4569C112.422 14.76 111.96 15.2148 111.614 15.7832V14.1538H109.614V23.6839ZM122.673 23.2102L119.269 14.1348H121.384L123.673 20.5577L125.884 14.1348H128L123.096 27.5489H121.096L122.673 23.2102Z" fill="#297FCA"/>
</svg>
