<svg width="80" height="80" viewBox="0 0 80 80" fill="none" xmlns="http://www.w3.org/2000/svg">
<circle cx="40" cy="40" r="40" fill="#1960A5"/>
<path d="M45.7749 21.6268C49.7569 18.4624 52.2512 18.6175 57.1833 22.4551C61.1563 26.8748 63.697 26.7009 68.5918 23.2835M29.8594 22.3171L39.1552 15V65.9434L29.8594 58.0741V22.3171Z" stroke="white" stroke-width="2" stroke-linecap="round" stroke-linejoin="round"/>
<path d="M46.9014 57.3839C51.2806 53.6494 54.2253 53.5182 58.4507 58.2122C62.676 62.9062 64.8747 62.5294 70 59.0406" stroke="white" stroke-width="2" stroke-linecap="round" stroke-linejoin="round"/>
<path d="M43.5215 37.545C46.4771 34.036 50.8454 35.8468 52.4652 38.3043C54.0849 40.7619 57.7955 43.0262 61.4088 39.0636" stroke="white" stroke-width="2" stroke-linecap="round" stroke-linejoin="round"/>
<ellipse cx="12.1129" cy="29.0819" rx="0.985916" ry="0.966407" fill="white"/>
<ellipse cx="14.0845" cy="35.4326" rx="0.985916" ry="0.966407" fill="white"/>
<ellipse cx="21.4088" cy="35.9848" rx="0.985916" ry="0.966407" fill="white"/>
<ellipse cx="25.3521" cy="32.6715" rx="0.985916" ry="0.966407" fill="white"/>
<ellipse cx="32.6763" cy="30.4625" rx="0.985916" ry="0.966407" fill="white"/>
<ellipse cx="34.648" cy="38.4698" rx="0.985916" ry="0.966407" fill="white"/>
<ellipse cx="19.9859" cy="28.9664" rx="0.985916" ry="0.966407" fill="white"/>
<ellipse cx="24.7891" cy="43.7162" rx="0.985916" ry="0.966407" fill="white"/>
<ellipse cx="16.9859" cy="40.9664" rx="0.985916" ry="0.966407" fill="white"/>
<ellipse cx="15.9859" cy="47.9664" rx="0.985916" ry="0.966407" fill="white"/>
<ellipse cx="35.0707" cy="49.6526" rx="0.845071" ry="0.828349" fill="white"/>
<ellipse cx="21.5497" cy="51.0332" rx="0.845071" ry="0.828349" fill="white"/>
<ellipse cx="17.8451" cy="56.8284" rx="0.845071" ry="0.828349" fill="white"/>
<ellipse cx="11.6903" cy="52.966" rx="0.845071" ry="0.828349" fill="white"/>
</svg>
