<svg width="80" height="80" viewBox="0 0 80 80" fill="none" xmlns="http://www.w3.org/2000/svg">
<circle cx="40" cy="40" r="40" fill="#309110"/>
<path d="M45.7749 21.6268C49.7569 18.4624 52.2512 18.6175 57.1833 22.4551C61.1563 26.8748 63.697 26.7009 68.5918 23.2835M29.8594 22.3171L39.1552 15V65.9434L29.8594 58.0741V22.3171Z" stroke="white" stroke-width="2" stroke-linecap="round" stroke-linejoin="round"/>
<path d="M46.9014 57.3839C51.2806 53.6494 54.2253 53.5182 58.4507 58.2122C62.676 62.9062 64.8747 62.5294 70 59.0406" stroke="white" stroke-width="2" stroke-linecap="round" stroke-linejoin="round"/>
<path d="M43.521 37.545C46.4766 34.036 50.8449 35.8468 52.4647 38.3043C54.0844 40.7619 57.795 43.0262 61.4083 39.0636" stroke="white" stroke-width="2" stroke-linecap="round" stroke-linejoin="round"/>
<ellipse cx="12.9577" cy="42.6116" rx="2.95775" ry="2.89922" stroke="white" stroke-width="2"/>
<ellipse cx="20" cy="23.2835" rx="4.08451" ry="4.00369" stroke="white" stroke-width="2"/>
<ellipse cx="18.4507" cy="56.8316" rx="2.53521" ry="2.48505" stroke="white" stroke-width="2"/>
<ellipse cx="12.1129" cy="29.0819" rx="0.985916" ry="0.966407" fill="white"/>
<ellipse cx="14.0845" cy="35.4326" rx="0.985916" ry="0.966407" fill="white"/>
<ellipse cx="21.4083" cy="35.9848" rx="0.985916" ry="0.966407" fill="white"/>
<ellipse cx="25.3521" cy="32.6715" rx="0.985916" ry="0.966407" fill="white"/>
<ellipse cx="32.6763" cy="30.4625" rx="0.985916" ry="0.966407" fill="white"/>
<ellipse cx="34.648" cy="38.4698" rx="0.985916" ry="0.966407" fill="white"/>
<ellipse cx="24.7887" cy="43.7162" rx="0.985916" ry="0.966407" fill="white"/>
<ellipse cx="35.0707" cy="49.6526" rx="0.845071" ry="0.828349" fill="white"/>
<ellipse cx="21.5492" cy="51.0332" rx="0.845071" ry="0.828349" fill="white"/>
<ellipse cx="11.6903" cy="52.9659" rx="0.845071" ry="0.828349" fill="white"/>
</svg>
