<svg width="60" height="60" viewBox="0 0 60 60" fill="none" xmlns="http://www.w3.org/2000/svg">
<circle cx="30" cy="30" r="28.5" stroke="#00FFF0" stroke-width="3"/>
<path d="M44 28.0465C44 26.7394 43.5704 25.4941 42.7575 24.4439L38.1735 17.991C38.0388 17.8015 37.8138 17.6879 37.5728 17.6879C37.3319 17.6879 37.1068 17.8015 36.9722 17.991L35.0406 20.7101L29.0681 12.303C28.9336 12.1136 28.7084 12 28.4676 12C28.2267 12 28.0016 12.1136 27.867 12.303L17.6146 26.7348C15.904 28.9391 15 31.5537 15 34.2976C15 41.3393 21.0416 47.0682 28.4676 47.0682C35.8936 47.0682 41.9351 41.3393 41.9351 34.2976C41.9351 33.7354 41.8955 33.1723 41.8185 32.6179C43.1552 31.5003 44 29.8653 44 28.0465ZM37.5728 19.6037L41.5561 25.2108C41.5641 25.2225 41.5725 25.234 41.5812 25.2452C42.2161 26.0606 42.5517 27.0292 42.5517 28.0465C42.5517 30.6497 40.3182 32.7676 37.5728 32.7676C34.8275 32.7676 32.5941 30.6497 32.5941 28.0465C32.5941 27.0292 32.9296 26.0606 33.5645 25.2452C33.5729 25.2345 33.581 25.2235 33.5887 25.2122L35.6397 22.325C35.6435 22.3197 35.6474 22.3145 35.651 22.309L37.5728 19.6037ZM40.4867 34.2976C40.4867 40.5821 35.0949 45.6949 28.4675 45.6949C21.84 45.6949 16.4483 40.5821 16.4483 34.2976C16.4483 31.8431 17.2586 29.5045 18.7918 27.535C18.8006 27.5238 18.809 27.512 18.8172 27.5L28.4676 13.9157L34.1675 21.9392L32.3882 24.4439C31.5753 25.4941 31.1457 26.7395 31.1457 28.0465C31.1457 31.4071 34.0289 34.1411 37.5728 34.1411C38.6091 34.1411 39.5887 33.907 40.4564 33.4921C40.4761 33.76 40.4867 34.0289 40.4867 34.2976Z" fill="#00FFF0"/>
</svg>
